<?xml version="1.0" encoding="UTF-8"?>
<svg width="758px" height="829px" viewBox="0 0 758 829" version="1.1" xmlns="http://www.w3.org/2000/svg" xmlns:xlink="http://www.w3.org/1999/xlink">
    <title>形状结合</title>
    <defs>
        <linearGradient x1="50%" y1="0%" x2="50%" y2="100%" id="linearGradient-1">
            <stop stop-color="#38A4FB" offset="0%"></stop>
            <stop stop-color="#24699F" offset="100%"></stop>
        </linearGradient>
    </defs>
    <g id="页面-1" stroke="none" stroke-width="1" fill="none" fill-rule="evenodd">
        <path d="M271.0588,558.6824 C271.856011,558.869231 272.65129,559.057778 273.444681,559.248003 C273.745207,559.320058 274.044991,559.39224 274.344507,559.464659 C275.009473,559.625441 275.673177,559.787409 276.335588,559.950529 C276.455224,559.97999 276.575216,560.009586 276.695166,560.03922 C277.409112,560.215604 278.121183,560.393228 278.831791,560.572158 C279.023616,560.620459 279.215448,560.668884 279.407174,560.717404 C281.080324,561.140826 282.74533,561.571445 284.402704,562.008922 C284.575939,562.054648 284.749331,562.100513 284.92264,562.146453 C285.599519,562.325878 286.274845,562.506365 286.948934,562.687967 C287.154465,562.743337 287.36009,562.798868 287.5656,562.854501 C288.244256,563.03822 288.921639,563.223056 289.597806,563.408991 C289.736734,563.447194 289.875546,563.485426 290.014307,563.523703 C291.566576,563.951902 293.112473,564.385879 294.652357,564.825326 C295.006284,564.926329 295.359553,565.027522 295.712509,565.129001 C297.224548,565.563727 298.730888,566.00369 300.231848,566.448589 C300.398203,566.497899 300.564222,566.547188 300.730175,566.596538 C301.412938,566.799572 302.094697,567.003653 302.775382,567.208723 C303.120753,567.312774 303.465912,567.417098 303.810798,567.521674 C304.196226,567.638542 304.58148,567.755775 304.9664,567.873317 C305.362554,567.99429 305.758114,568.115516 306.153327,568.237063 C306.526455,568.351819 306.899478,568.466924 307.272197,568.582312 C308.777183,569.048231 310.276791,569.518619 311.771818,569.993308 C312.156789,570.115541 312.541974,570.238224 312.92686,570.361187 C313.227626,570.457276 313.527602,570.553342 313.827401,570.649576 C314.373698,570.824936 314.919383,571.000848 315.464495,571.177304 C315.722072,571.260683 315.979988,571.344336 316.237778,571.428108 C316.631105,571.555926 317.023894,571.683945 317.416396,571.812239 C317.918406,571.976326 318.419968,572.140869 318.921074,572.30585 C320.317335,572.765545 321.709779,573.228542 323.098988,573.694679 C323.345398,573.77736 323.591663,573.860125 323.837827,573.942987 C324.453487,574.150226 325.068488,574.358063 325.682891,574.566486 C325.825573,574.614888 325.968446,574.663398 326.111287,574.711939 C327.677682,575.24424 329.239739,575.780158 330.798391,576.319494 C330.996396,576.388009 331.194435,576.45661 331.392421,576.525265 C334.48898,577.599064 337.572245,578.686161 340.645793,579.78372 C340.908716,579.877609 341.171747,579.97164 341.43471,580.065745 C342.638498,580.496539 343.840471,580.928768 345.04121,581.362394 C345.633587,581.576321 346.225846,581.790653 346.817829,582.005305 C348.1285,582.48055 349.437676,582.957308 350.745779,583.435407 C350.897594,583.490894 351.049262,583.546351 351.200915,583.601824 C352.352592,584.023101 353.503552,584.445431 354.653892,584.868627 C355.942551,585.34271 357.23042,585.817875 358.517775,586.293913 C359.147101,586.526625 359.776195,586.759505 360.405197,586.992568 C361.531039,587.409724 362.656809,587.827551 363.782462,588.24582 C366.910469,589.408123 370.037382,590.573778 373.167184,591.73976 L376.965576,593.154154 C377.636786,593.40392 378.308199,593.653644 378.979853,593.903294 L379.535972,594.109964 L379.535972,594.109964 L382.403941,595.174393 C383.587504,595.613124 384.772007,596.051469 385.957655,596.489262 C390.666348,598.227921 395.393585,599.958063 400.15163,601.669117 C400.310062,601.726091 400.468686,601.783101 400.627344,601.840089 L400.15163,601.669117 C403.54114,602.888029 406.946285,604.097254 410.371672,605.293036 C410.503782,605.339155 410.636116,605.385322 410.76848,605.431468 L410.371672,605.293036 C411.020676,605.5196 411.670408,605.745681 412.320897,605.971254 L410.76848,605.431468 C411.690927,605.75306 412.614854,606.073668 413.540351,606.393219 C414.776832,606.820144 416.016379,607.245272 417.258945,607.668337 C417.763643,607.840175 418.268189,608.011452 418.773247,608.182378 L420.504533,608.766223 C420.674036,608.82318 420.843598,608.880096 421.013219,608.936971 L420.504781,608.766306 C422.136785,609.314697 423.774268,609.859299 425.417709,610.399721 C425.656911,610.478379 425.895367,610.556663 426.13395,610.634857 L425.417709,610.399721 C426.284881,610.684879 427.153712,610.968872 428.024271,611.251644 L426.13395,610.634857 C427.015233,610.923693 427.898245,611.211314 428.783061,611.497658 L428.024271,611.251644 C428.981325,611.562511 429.940468,611.871901 430.901795,612.17974 L428.783061,611.497658 C429.591968,611.759438 430.402383,612.02015 431.214361,612.279751 L430.901795,612.17974 C431.722006,612.44239 432.543808,612.70391 433.367257,612.964253 L431.214361,612.279751 C432.053322,612.547979 432.893953,612.815019 433.736315,613.080821 L433.367257,612.964253 C434.248949,613.24301 435.132529,613.520417 436.018071,613.796416 L433.736315,613.080821 C434.650985,613.36944 435.567697,613.656599 436.48653,613.942234 L436.018071,613.796416 C436.917487,614.07674 437.818926,614.355611 438.722461,614.632969 L436.48653,613.942234 C437.409035,614.22901 438.333678,614.51425 439.26054,614.797887 L438.722461,614.632969 C439.64775,614.917004 440.575239,615.199452 441.505007,615.480248 L439.26054,614.797887 C440.05663,615.041506 440.854356,615.283943 441.653771,615.525156 L441.505007,615.480248 C442.368513,615.741032 443.233985,616.00039 444.101488,616.258271 L441.653771,615.525156 C442.526038,615.788351 443.400314,616.05009 444.276666,616.310317 L444.101488,616.258271 C444.878387,616.489218 445.656915,616.718979 446.437117,616.947518 L444.276666,616.310317 C445.296822,616.613247 446.319791,616.914129 447.345677,617.212879 L446.437117,616.947518 C447.38127,617.224081 448.327875,617.498854 449.277016,617.771768 L447.345677,617.212879 C448.195491,617.460355 449.047307,617.706367 449.901184,617.950867 L449.277016,617.771768 C451.020902,618.273203 452.773346,618.768367 454.534854,619.256845 C454.739499,619.313594 454.944302,619.370263 455.149228,619.426841 L454.534854,619.256845 C455.494101,619.522851 456.456036,619.786874 457.420741,620.048848 L455.149228,619.426841 C456.091303,619.686939 457.035981,619.945116 457.983341,620.201308 L457.420741,620.048848 C458.38882,620.311737 459.359688,620.572564 460.33343,620.831259 L457.983341,620.201308 C458.891851,620.446995 459.802827,620.690856 460.716337,620.932837 L460.33343,620.831259 C461.239432,621.071957 462.147921,621.310811 463.058964,621.547765 L460.716337,620.932837 C461.545697,621.152527 462.377146,621.370667 463.210734,621.587216 L463.058964,621.547765 C463.939188,621.776704 464.821797,622.003869 465.706849,622.229213 L463.210734,621.587216 C464.174369,621.837547 465.140863,622.085752 466.110296,622.331765 L465.706849,622.229213 C466.643874,622.467789 467.583638,622.704322 468.526213,622.938755 L466.110296,622.331765 C467.065578,622.574187 468.023712,622.814481 468.984776,623.052585 L468.526213,622.938755 C469.427485,623.162915 470.331326,623.385154 471.2378,623.605421 L468.984776,623.052585 C469.944381,623.290328 470.906906,623.525888 471.872426,623.759204 C472.652069,623.947605 473.434463,624.134731 474.218855,624.320359 L471.872426,623.759204 C472.726998,623.96571 473.583916,624.170457 474.443232,624.373404 L474.218855,624.320359 C475.125024,624.534805 476.033858,624.747252 476.945418,624.957648 L474.443232,624.373404 C475.435199,624.607679 476.430361,624.839555 477.4288,625.068966 L476.945418,624.957648 C479.729858,625.600323 482.539731,626.22387 485.376784,626.826867 C485.605928,626.875571 485.835334,626.924157 486.064918,626.97261 L485.376784,626.826867 C486.43235,627.051221 487.491679,627.27273 488.55486,627.491321 L486.064918,626.97261 C487.008513,627.171748 487.955122,627.368608 488.904806,627.563137 L488.55486,627.491321 C489.538767,627.693614 490.525974,627.893407 491.516551,628.090643 L488.904806,627.563137 C489.928647,627.772855 490.956063,627.979864 491.987135,628.184099 L491.516551,628.090643 C492.405414,628.267627 493.296991,628.442551 494.191334,628.615375 L491.987135,628.184099 C492.904179,628.365747 493.824115,628.545201 494.746999,628.722413 L494.191334,628.615375 C495.195693,628.809459 496.20354,629.000892 497.214948,629.189617 L494.746999,628.722413 C495.791516,628.922982 496.83981,629.12068 497.891963,629.315442 L497.214948,629.189617 C498.27764,629.387912 499.344263,629.583216 500.414901,629.77546 L497.891963,629.315442 C498.837148,629.490403 499.785448,629.662995 500.73692,629.833168 L500.414901,629.77546 C502.335231,630.120275 504.26848,630.455247 506.215134,630.779978 C506.421648,630.814428 506.627811,630.848679 506.834125,630.882815 L506.215134,630.779978 C507.294331,630.960005 508.377647,631.136884 509.465168,631.310547 L506.834125,630.882815 C507.830696,631.047704 508.830784,631.209907 509.834454,631.369368 L509.465168,631.310547 C510.48107,631.472775 511.500641,631.632196 512.523947,631.788757 L509.834454,631.369368 C510.897824,631.538316 511.965215,631.704187 513.036704,631.866919 L512.523947,631.788757 C513.552952,631.946189 514.585734,632.100729 515.622363,632.25232 L513.036704,631.866919 C513.989352,632.011602 514.945239,632.153804 515.90442,632.29348 L515.622363,632.25232 C516.585016,632.393093 517.550986,632.531322 518.520327,632.666964 L515.90442,632.29348 C517.028799,632.457212 518.157704,632.617473 519.291223,632.774192 L518.520327,632.666964 C519.644331,632.824248 520.77287,632.978052 521.906028,633.128305 L519.291223,632.774192 C520.302693,632.914036 521.317837,633.051061 522.336716,633.185213 L521.906028,633.128305 C522.995182,633.272724 524.088604,633.413864 525.186371,633.551661 L522.336716,633.185213 C523.368026,633.321003 524.403164,633.45385 525.442194,633.583703 L525.186371,633.551661 C526.181307,633.676551 527.179812,633.798695 528.181943,633.918048 L525.442194,633.583703 C526.475994,633.712902 527.513648,633.839137 528.555218,633.962356 L528.181943,633.918048 C529.256114,634.045981 530.334451,634.170707 531.417024,634.292168 L528.555218,633.962356 C529.671522,634.094415 530.792326,634.22301 531.917708,634.348076 L531.417024,634.292168 C532.510118,634.414809 533.60753,634.534123 534.709333,634.65005 L531.917708,634.348076 C532.999736,634.468325 534.085997,634.585311 535.17656,634.698978 L538.1788,635.0024 C542.75876,635.45082 547.36884,635.668543 551.994167,635.676432 L553.97734,635.667027 C614.159265,634.995738 676.558677,599.366208 708.496968,574.614392 L709.5388,573.8024 L739.0588,545.0024 L738.732446,545.815864 C733.072897,559.593134 721.779377,570.753477 713.1388,581.7224 C677.59488,626.84369 606.882615,672.770304 522.468033,673.647212 L519.410974,673.659209 C503.075235,673.617709 486.23992,671.8816 469.0588,668.1224 C396.96916,652.34972 312.873736,600.472194 226.793967,601.014905 L223.718863,601.056724 C208.339292,601.378753 192.90025,603.40595 177.4588,607.6424 C157.9598,612.9924 140.6768,621.0974 124.1788,629.2424 L124.1788,629.2424 L125.6188,630.6824 C135.6038,652.7634 166.6298,680.0474 185.3788,694.7624 C238.5516,736.4936 318.4732,779.11824 412.208944,779.07536 L415.730485,779.053667 C438.074265,778.788528 461.18813,776.08596 484.8988,770.3624 C585.3188,746.1224 656.2008,694.0034 705.9388,619.1624 C719.8118,598.2884 743.8418,561.7494 747.6988,533.4824 L747.777299,533.678902 C750.243284,540.36425 740.44471,566.80517 736.1788,576.6824 C735.303488,578.708991 734.433644,580.728404 733.565914,582.742001 C732.982236,584.096446 732.399861,585.447457 731.817422,586.796253 C731.063524,588.54211 730.309463,590.284392 729.553085,592.023861 L729.308287,592.586544 C728.474833,594.501283 727.638282,596.412729 726.795684,598.322082 C726.607977,598.747433 726.419975,599.172667 726.231641,599.59781 C726.156152,599.768218 726.080643,599.938536 726.005079,600.10884 L726.231641,599.59781 C726.015046,600.086748 725.798012,600.575566 725.580488,601.064285 C725.341714,601.600745 725.102326,602.137139 724.862283,602.673439 C724.604092,603.250285 724.344999,603.82734 724.085066,604.40432 C723.539203,605.615983 722.989503,606.827596 722.435333,608.039186 C722.149198,608.664768 721.861873,609.290341 721.573251,609.915951 C720.870394,611.43945 720.159749,612.963382 719.43991,614.488141 C719.156411,615.088647 718.871467,615.68932 718.585005,616.290159 C717.420986,618.73163 716.23178,621.176071 715.011315,623.625763 C714.277277,625.099104 713.532099,626.574021 712.774273,628.051384 C712.335701,628.90637 711.892874,629.762212 711.44555,630.618979 C711.153247,631.178831 710.859157,631.738827 710.563076,632.299246 C710.019731,633.327688 709.469416,634.35805 708.91194,635.390024 C708.697935,635.786182 708.482736,636.182832 708.266455,636.579731 C707.697835,637.623203 707.121952,638.668006 706.538132,639.714712 C706.380065,639.998104 706.22156,640.281379 706.062465,640.564797 C705.997762,640.68006 705.93309,640.79512 705.868321,640.910202 C705.769128,641.08645 705.669476,641.263158 705.569592,641.439923 C705.415662,641.712334 705.261118,641.984988 705.106014,642.257781 C704.468092,643.379735 703.820693,644.504015 703.163241,645.63087 C702.759098,646.32356 702.351152,647.017231 701.939276,647.711928 C701.813046,647.924836 701.686258,648.138157 701.559096,648.351577 C701.500166,648.450481 701.441297,648.54917 701.382347,648.64788 C701.186969,648.975038 700.990494,649.302784 700.793122,649.630768 C700.662234,649.848273 700.53095,650.065882 700.399268,650.283598 C700.273902,650.490872 700.148174,650.698242 700.022081,650.90571 C699.906019,651.096674 699.789482,651.287992 699.672633,651.479395 C699.528626,651.715283 699.384121,651.951335 699.239135,652.187518 C699.093151,652.425329 698.94665,652.66332 698.799656,652.901446 C698.713552,653.040932 698.627325,653.180389 698.540928,653.319893 L698.799656,652.901446 C698.549462,653.306752 698.297842,653.712447 698.044771,654.118541 C697.858186,654.417947 697.670784,654.717613 697.482583,655.0175 C697.042942,655.718039 696.599324,656.41918 696.151221,657.121577 C696.015627,657.334119 695.87961,657.546796 695.743179,657.759589 C694.685994,659.408483 693.60429,661.063837 692.496057,662.72686 L692.2588,663.0824 C645.2898,733.3714 568.5468,794.6884 459.6988,820.7624 C436.61985,826.29069 394.991717,828.779851 365.558025,828.848421 L364.355365,828.849878 C353.99318,828.850721 345.23132,828.54558 339.4588,827.9624 C314.0328,825.3934 290.6398,820.3474 268.1788,813.5624 C163.9768,782.0844 87.2238,712.2704 41.3788,622.0424 C79.3298,572.0144 178.6068,537.0164 271.0588,558.6824 Z M347.3788,73.4024 L352.4188,74.1224 L350.9788,74.1224 C350.939987,74.1544643 350.901197,74.1865021 350.862429,74.2185136 L352.4188,74.4399 L350.9788,74.4399 C346.314575,78.2931394 341.975364,81.7642325 337.686374,85.1761868 L336.400909,86.1983219 L335.116808,87.2188468 L334.547449,87.6713335 L334.547449,87.6713335 L333.40799,88.577176 C324.096012,95.9823807 314.589123,103.616188 302.06912,114.791259 L301.2988,115.4799 L276.8188,141.3999 L250.1788,150.7599 C230.6698,159.2189 210.7958,169.9159 194.0188,181.7199 C138.2368,220.9669 97.5148,273.7229 70.8988,342.2799 C59.5981355,371.388075 51.8310935,412.5557 51.8327306,453.148277 C51.8509372,470.528143 53.2954037,487.79698 56.4988,503.9624 C59.1108,517.1424 71.1098,564.6184 76.6588,576.6824 C76.6232088,576.70759 76.5875157,576.732871 76.5517215,576.758244 C76.5868252,576.842528 76.6229472,576.921953 76.6588,576.9999 C66.0170286,584.531743 46.2681443,600.220442 37.4358721,611.779952 L37.0588,612.2799 L35.6188,611.5599 L16.8988,562.5999 C10.4718,542.1949 6.3868,520.5229 3.2188,497.7999 C1.32232,484.19757 0.4831087,469.82425 0.500458549,455.331545 L0.500458549,455.014045 C0.5473674,415.830064 6.85575,375.77338 15.4588,347.7224 C51.5258,230.1284 124.6658,147.1964 232.1788,101.4824 C254.6908,91.9104 279.8558,84.9194 305.6188,79.1624 L305.6188,79.1624 L347.3788,73.4024 L347.3788,73.4024 Z M579.9389,129.5625 C659.2919,177.6285 717.5359,253.4605 745.5389,352.7625 C753.0387,379.35753 757.457199,413.922915 757.502864,450.237935 L757.502428,451.971178 C757.483846,461.887383 757.138765,471.927716 756.440985,481.965989 L756.3389,483.4 L754.1789,505.72 C743.9109,521.902 701.2689,566.348 681.4589,577 L681.599195,576.6055 L681.4589,576.6825 C692.177103,546.753517 697.768613,525.2959 703.483182,495.434629 L703.7789,493.8825 C705.671809,483.904918 706.358404,472.048779 706.379165,460.213895 L706.37896,459.30725 C706.357826,449.107975 705.855718,438.973182 705.2189,430.12 C703.6879,408.832 702.3939,394.027 698.0189,376.84 C682.6589,316.501 656.8949,271.674 621.6989,231.4 C604.4199,211.628 579.2059,193.227 562.6589,180.28 L562.744195,180.0285 L562.6589,179.9625 C565.5384,171.5635 568.41865,163.163 571.2989,154.7625 Z M580.6588,100.0425 L580.532766,100.361722 C580.574776,100.361126 580.616788,100.360552 580.6588,100.36 L561.9388,147.88 C549.7888,179.426 543.1898,214.737 536.7388,251.56 C533.042949,272.65591 531.332425,296.717858 531.324435,320.988891 C531.333923,354.503833 534.586846,388.393902 540.3388,415.4025 L540.3388,415.4025 L555.4588,478.7625 L555.4588,478.7625 L555.387195,478.7815 L555.4588,479.08 L288.3388,548.92 C286.428481,545.036913 283.360764,539.118387 280.415946,533.190427 L279.84786,532.043507 C276.452675,525.167803 273.334626,518.455652 272.4988,515.08 L272.576068,515.060246 C272.548476,514.958317 272.522705,514.859044 272.4988,514.7625 C354.0908,493.6445 436.4268,471.8005 518.0188,450.6825 L518.0188,450.6825 L518.0188,450.28 C503.226852,407.086741 494.612592,348.632899 494.590741,290.993701 C494.555544,252.800014 498.290667,214.950642 506.4988,182.1225 C510.1218,167.6345 521.2338,117.4305 525.9388,114.4425 C542.0458,105.1195 561.2678,100.2975 580.6588,100.0425 L580.6588,100.0425 Z M407.8589,330.4424 L471.2189,331.1624 C473.6119,370.3414 492.4209,419.8094 498.5789,441.3224 C498.550569,441.329545 498.522237,441.33669 498.493906,441.343835 C498.522709,441.44393 498.550935,441.542203 498.5789,441.6399 C425.626233,460.0379 352.6589,478.4399 279.696456,496.840567 L170.2589,524.4399 L169.5389,523.7199 C169.35575,513.26481 169.091966,501.06137 168.948741,488.821854 L168.926604,486.837022 L168.916854,485.891374 L168.916854,485.891374 L168.899005,484.001456 C168.868377,480.538932 168.849551,477.091569 168.847105,473.698323 L168.84719,471.776902 C168.859663,456.968383 169.20136,443.3201 170.2589,434.1224 C170.594571,431.201962 171.01574,427.373153 171.482748,423.429878 L171.600432,422.442134 C172.529412,414.693324 173.621516,406.759249 174.5789,404.6024 C187.0319,395.0554 218.1959,379.8294 239.3789,370.7624 C273.0429,356.3534 309.7239,345.4884 350.2589,336.9224 C368.0899,333.0724 384.0519,331.1624 407.8589,330.4424 L407.8589,330.4424 Z M470.4989,190.7625 C470.473065,190.867456 470.447345,190.97264 470.421741,191.078049 L470.4989,191.08 C466.812043,206.057994 465.477817,225.659136 465.465175,246.248632 C465.466297,272.627889 467.625894,300.596349 469.7789,322.5225 L469.7789,322.5225 L469.747195,322.5225 L469.7789,322.84 L469.0589,322.84 C449.1479,320.553 405.2689,321.052 384.8189,323.56 C321.9919,331.263 292.1019,338.144 250.8989,354.52 C224.558643,364.989271 195.458949,380.747139 176.132963,391.495852 L175.2989,391.96 L175.381195,391.5965 L175.2989,391.6425 L175.2989,391.6425 L184.6589,350.6025 L184.6589,350.6025 L218.4989,316.7625 C223.988715,312.336426 229.253294,307.528098 234.512137,302.671636 L237.381347,300.019891 C244.081002,293.830719 250.836011,287.661981 258.0989,282.2025 C295.9449,253.7535 339.3119,230.8835 386.9789,212.3625 L386.9789,212.3625 L446.0189,195.0825 L446.0189,195.0825 L467.6189,190.7625 Z M532.4188,0.6825 C532.359033,0.799830258 532.299265,0.917160772 532.239497,1.03449154 L532.4188,1 L532.4188,1 L512.9788,39.16 L512.9788,39.16 C495.1538,79.508 478.1498,127.317 471.9388,181 C446.0648,181.923 419.7858,191.547 398.4988,199 C333.51322,221.75416 282.807697,251.163199 234.366048,289.28221 L232.8988,290.44 L190.4188,331.48 L190.524195,331.0595 L190.4188,331.1625 C196.849958,305.143132 208.846575,280.195157 220.058925,258.179115 L220.6588,257.0025 C267.6688,164.8915 331.9128,99.1365 419.3788,47.4825 C448.3238,30.3885 498.9068,7.0695 532.4188,0.6825 Z" id="形状结合" fill="url(#linearGradient-1)"></path>
    </g>
</svg>